<svg width="24" height="25" viewBox="0 0 24 25" fill="none" xmlns="http://www.w3.org/2000/svg">
<g clip-path="url(#clip0_839_1628)">
<path d="M12 24.1548C5.4 24.1548 0 18.7548 0 12.1548C0 5.55479 5.4 0.154785 12 0.154785C18.6 0.154785 24 5.55479 24 12.1548C24 18.7548 18.6 24.1548 12 24.1548ZM12 1.65479C6.2 1.65479 1.5 6.35478 1.5 12.1548C1.5 17.9548 6.2 22.6548 12 22.6548C17.8 22.6548 22.5 17.9548 22.5 12.1548C22.5 6.35478 17.8 1.65479 12 1.65479Z" fill="#262626"/>
<path d="M17.4498 12.1548C17.4498 11.4548 16.8998 10.9048 16.1998 10.9048C15.4998 10.9048 14.9498 11.4548 14.9498 12.1548C14.9498 12.8548 15.4998 13.4048 16.1998 13.4048C16.8998 13.4048 17.4498 12.8548 17.4498 12.1548ZM6.5498 12.1548C6.5498 11.4548 7.0998 10.9048 7.7998 10.9048C8.4998 10.9048 9.0498 11.4548 9.0498 12.1548C9.0498 12.8548 8.4998 13.4048 7.7998 13.4048C7.0998 13.4048 6.5498 12.8548 6.5498 12.1548ZM11.9998 18.8048C9.3998 18.8048 7.9998 17.0548 7.8998 16.9548C7.6498 16.6548 7.6998 16.1548 7.9998 15.9048C8.2998 15.6548 8.7998 15.7048 9.0498 16.0048C9.0998 16.0548 10.0998 17.2548 11.9498 17.2548C13.7998 17.2548 14.8498 16.0048 14.8498 16.0048C15.0998 15.7048 15.5998 15.6548 15.8998 15.9048C16.1998 16.1548 16.2498 16.6548 15.9998 16.9548C15.9998 17.0548 14.5998 18.8048 11.9998 18.8048Z" fill="#262626"/>
</g>
<defs>
<clipPath id="clip0_839_1628">
<rect width="24" height="24" fill="white" transform="translate(0 0.154785)"/>
</clipPath>
</defs>
</svg>
