<svg width="151" height="36" viewBox="0 0 151 36" fill="none" xmlns="http://www.w3.org/2000/svg">
<g clip-path="url(#clip0_60_4709)">
<path d="M44.8542 29H37.7958C37.4292 29 37.1083 28.6791 37.1083 28.3125V22.675C37.1083 21.4833 36.1458 20.5666 35 20.5666C33.8542 20.5666 32.8917 21.5291 32.8917 22.675V28.3125C32.8917 28.6791 32.5708 29 32.2042 29H25.1458C24.7792 29 24.4583 28.6791 24.4583 28.3125V17.5416C24.4583 17.3583 24.55 17.175 24.6417 17.0375L34.4958 7.1833C34.7708 6.9083 35.2292 6.9083 35.4583 7.1833L45.3125 17.0375C45.45 17.175 45.4958 17.3583 45.4958 17.5416V28.3125C45.5417 28.6791 45.2208 29 44.8542 29Z" fill="#262626"/>
</g>
<g clip-path="url(#clip1_60_4709)">
<path d="M82.575 29H75.425C72.4 29 71.025 28.2667 69.8792 27.1667C68.7333 25.975 68 24.6 68 21.575V14.425C68 11.4 68.7333 10.025 69.8333 8.87917C71.025 7.73333 72.4 7 75.425 7H82.575C85.6 7 86.975 7.73333 88.1208 8.83333C89.2667 10.025 90 11.4 90 14.425V21.575C90 24.6 89.2667 25.975 88.1667 27.1208C86.975 28.2667 85.6 29 82.575 29ZM75.425 8.375C72.5833 8.375 71.575 9.10833 70.7958 9.84167C70.1083 10.575 69.375 11.5833 69.375 14.425V21.575C69.375 24.4167 70.1083 25.425 70.8417 26.2042C71.575 26.9375 72.5833 27.625 75.425 27.625H82.575C85.4167 27.625 86.425 26.8917 87.2042 26.1583C87.9375 25.425 88.625 24.4167 88.625 21.575V14.425C88.625 11.5833 87.8917 10.575 87.1583 9.79583C86.425 9.10833 85.4167 8.375 82.575 8.375H75.425Z" fill="#262626"/>
<path d="M84.6375 18.6875H73.3625C72.9958 18.6875 72.675 18.3667 72.675 18C72.675 17.6333 72.9958 17.3125 73.3625 17.3125H84.6375C85.0042 17.3125 85.325 17.6333 85.325 18C85.325 18.3667 85.0042 18.6875 84.6375 18.6875Z" fill="#262626"/>
<path d="M79 24.325C78.6333 24.325 78.3125 24.0042 78.3125 23.6375V12.3625C78.3125 11.9959 78.6333 11.675 79 11.675C79.3667 11.675 79.6875 11.9959 79.6875 12.3625V23.6375C79.6875 24.0042 79.3667 24.325 79 24.325Z" fill="#262626"/>
</g>
<g clip-path="url(#clip2_60_4709)">
<path d="M127.858 9.7959C130.471 9.7959 132.625 12.1792 132.625 15.0667C132.625 18.1834 129.921 20.1084 127.354 22.4001C124.788 24.6917 123.458 25.9292 123 26.2042C122.496 25.8834 120.846 24.3709 118.646 22.4001C116.033 20.1084 113.375 18.1834 113.375 15.0667C113.375 12.1792 115.529 9.7959 118.142 9.7959C120.067 9.7959 121.121 10.7126 121.854 11.7667C122.725 12.9584 122.863 13.5542 123 13.5542C123.137 13.5542 123.275 12.9584 124.146 11.7667C124.879 10.7126 125.933 9.7959 127.858 9.7959ZM127.858 8.4209C125.796 8.4209 124.238 9.2459 123 10.9876C121.762 9.29173 120.204 8.46673 118.142 8.46673C114.75 8.4209 112 11.4001 112 15.0667C112 18.4126 114.475 20.5667 116.858 22.6292C117.133 22.8584 117.454 23.1334 117.729 23.4084L118.783 24.3251C120.8 26.1126 121.808 27.0292 122.267 27.3042C122.496 27.4417 122.771 27.5334 123 27.5334C123.275 27.5334 123.504 27.4417 123.733 27.3042C124.192 27.0292 125.017 26.2959 127.308 24.1876L128.225 23.3626C128.546 23.0876 128.821 22.8126 129.142 22.5834C131.571 20.5667 134 18.4584 134 15.0667C134 11.4001 131.25 8.4209 127.858 8.4209Z" fill="#262626"/>
</g>
<defs>
<clipPath id="clip0_60_4709">
<rect width="22" height="22" fill="white" transform="translate(24 7)"/>
</clipPath>
<clipPath id="clip1_60_4709">
<rect width="22" height="22" fill="white" transform="translate(68 7)"/>
</clipPath>
<clipPath id="clip2_60_4709">
<rect width="22" height="22" fill="white" transform="translate(112 7)"/>
</clipPath>
</defs>
</svg>
